ffmpeg started on 2025-05-28 at 11:03:52
Report written to "D:\Convert\FFMetrics\reports\psnr_report-6.txt"
Log level: 32
Command line:
ffmpeg -hide_banner -nostdin -i "G:\\\xc0\xed\xe8\xec\xe5\\\xce\xed\xe3\xee\xe8\xed\xe3\xe8\\!_36_\xce\xf1\xe5\xed\xfc_2024\\JamClub\\MF \xcf\xf0\xe8\xe7\xf0\xe0\xea\\\xd2\xc2-2\\[JamClub] MF Ghost 2 - 07_HEVC.mkv" -i "G:\\\xc0\xed\xe8\xec\xe5\\\xce\xed\xe3\xee\xe8\xed\xe3\xe8\\!_36_\xce\xf1\xe5\xed\xfc_2024\\JamClub\\MF \xcf\xf0\xe8\xe7\xf0\xe0\xea\\\xd2\xc2-2\\[JamClub] MF Ghost 2 - 07.mp4" -lavfi "[0:v]settb=AVTB,setpts=PTS-STARTPTS,format=pix_fmts=yuv420p10,fps=24000/1001,scale=1920:1080:flags=bicubic[main];[1:v]settb=AVTB,setpts=PTS-STARTPTS,format=pix_fmts=yuv420p,fps=24000/1001,scale=1920:1080:flags=bicubic[ref];[main][ref]psnr=eof_action=endall:stats_file='D\\:/Convert/FFMetrics/logs/psnr_logfile-6.txt'" -f null -
Input #0, matroska,webm, from 'G:\Аниме\Онгоинги\!_36_Осень_2024\JamClub\MF Призрак\ТВ-2\[JamClub] MF Ghost 2 - 07_HEVC.mkv':
  Metadata:
    COMPATIBLE_BRANDS: isomiso2avc1mp41
    MAJOR_BRAND     : isom
    MINOR_VERSION   : 512
    ENCODER         : Lavf61.7.100
  Duration: 00:24:02.33, start: -0.001000, bitrate: 2425 kb/s
  Stream #0:0: Video: hevc (Main 10), yuv420p10le(tv, bt709, progressive), 1920x1080 [SAR 1:1 DAR 16:9], 23.98 fps, 23.98 tbr, 1k tbn (default)
      Metadata:
        HANDLER_NAME    : VideoHandler
        VENDOR_ID       : [0][0][0][0]
        ENCODER         : Lavc61.19.100 libx265
        BPS             : 2226259
        DURATION        : 00:24:02.190708333
        NUMBER_OF_FRAMES: 34578
        NUMBER_OF_BYTES : 401336106
        _STATISTICS_WRITING_APP: mkvpropedit v66.0.0 ('Josie') 64-bit
        _STATISTICS_WRITING_DATE_UTC: 2025-05-27 13:23:17
        _STATISTICS_TAGS: BPS DURATION NUMBER_OF_FRAMES NUMBER_OF_BYTES
  Stream #0:1(eng): Audio: aac (LC), 48000 Hz, stereo, fltp (default)
      Metadata:
        HANDLER_NAME    : SoundHandler
        VENDOR_ID       : [0][0][0][0]
        ENCODER         : Lavc61.19.100 aac
        BPS             : 195201
        DURATION        : 00:24:02.285000000
        NUMBER_OF_FRAMES: 67608
        NUMBER_OF_BYTES : 35192020
        _STATISTICS_WRITING_APP: mkvpropedit v66.0.0 ('Josie') 64-bit
        _STATISTICS_WRITING_DATE_UTC: 2025-05-27 13:23:17
        _STATISTICS_TAGS: BPS DURATION NUMBER_OF_FRAMES NUMBER_OF_BYTES
Input #1, mov,mp4,m4a,3gp,3g2,mj2, from 'G:\Аниме\Онгоинги\!_36_Осень_2024\JamClub\MF Призрак\ТВ-2\[JamClub] MF Ghost 2 - 07.mp4':
  Metadata:
    major_brand     : isom
    minor_version   : 512
    compatible_brands: isomiso2avc1mp41
    encoder         : Lavf60.16.100
  Duration: 00:24:02.31, start: 0.000000, bitrate: 5802 kb/s
  Stream #1:0[0x1](und): Video: h264 (High) (avc1 / 0x31637661), yuv420p(progressive), 1920x1080 [SAR 1:1 DAR 16:9], 5604 kb/s, 23.98 fps, 23.98 tbr, 90k tbn (default)
      Metadata:
        handler_name    : VideoHandler
        vendor_id       : [0][0][0][0]
  Stream #1:1[0x2](eng): Audio: aac (LC) (mp4a / 0x6134706D), 48000 Hz, stereo, fltp, 191 kb/s (default)
      Metadata:
        handler_name    : SoundHandler
        vendor_id       : [0][0][0][0]
Stream mapping:
  Stream #0:0 (hevc) -> settb:default
  Stream #1:0 (h264) -> settb:default
  psnr:default -> Stream #0:0 (wrapped_avframe)
  Stream #0:1 -> #0:1 (aac (native) -> pcm_s16le (native))
Output #0, null, to 'pipe:':
  Metadata:
    COMPATIBLE_BRANDS: isomiso2avc1mp41
    MAJOR_BRAND     : isom
    MINOR_VERSION   : 512
    encoder         : Lavf61.7.100
  Stream #0:0: Video: wrapped_avframe, yuv420p10le(tv, bt709, progressive), 1920x1080 [SAR 1:1 DAR 16:9], q=2-31, 200 kb/s, 23.98 fps, 23.98 tbn
      Metadata:
        encoder         : Lavc61.19.100 wrapped_avframe
  Stream #0:1(eng): Audio: pcm_s16le, 48000 Hz, stereo, s16, 1536 kb/s (default)
      Metadata:
        HANDLER_NAME    : SoundHandler
        VENDOR_ID       : [0][0][0][0]
        _STATISTICS_TAGS: BPS DURATION NUMBER_OF_FRAMES NUMBER_OF_BYTES
        BPS             : 195201
        DURATION        : 00:24:02.285000000
        NUMBER_OF_FRAMES: 67608
        NUMBER_OF_BYTES : 35192020
        _STATISTICS_WRITING_APP: mkvpropedit v66.0.0 ('Josie') 64-bit
        _STATISTICS_WRITING_DATE_UTC: 2025-05-27 13:23:17
        encoder         : Lavc61.19.100 pcm_s16le
frame=  107 fps=0.0 q=-0.0 size=N/A time=00:00:04.46 bitrate=N/A speed=8.75x    frame=  256 fps=249 q=-0.0 size=N/A time=00:00:10.67 bitrate=N/A speed=10.4x    frame=  440 fps=284 q=-0.0 size=N/A time=00:00:18.35 bitrate=N/A speed=11.8x    frame=  689 fps=335 q=-0.0 size=N/A time=00:00:28.73 bitrate=N/A speed=  14x    frame=  900 fps=349 q=-0.0 size=N/A time=00:00:37.53 bitrate=N/A speed=14.6x    frame= 1108 fps=358 q=-0.0 size=N/A time=00:00:46.21 bitrate=N/A speed=14.9x    frame= 1336 fps=369 q=-0.0 size=N/A time=00:00:55.72 bitrate=N/A speed=15.4x    frame= 1575 fps=381 q=-0.0 size=N/A time=00:01:05.69 bitrate=N/A speed=15.9x    frame= 1814 fps=389 q=-0.0 size=N/A time=00:01:15.65 bitrate=N/A speed=16.2x    frame= 2036 fps=394 q=-0.0 size=N/A time=00:01:24.91 bitrate=N/A speed=16.4x    frame= 2262 fps=397 q=-0.0 size=N/A time=00:01:34.34 bitrate=N/A speed=16.6x    frame= 2478 fps=400 q=-0.0 size=N/A time=00:01:43.35 bitrate=N/A speed=16.7x    frame= 2696 fps=401 q=-0.0 size=N/A time=00:01:52.44 bitrate=N/A speed=16.7x    frame= 2920 fps=404 q=-0.0 size=N/A time=00:02:01.78 bitrate=N/A speed=16.8x    frame= 3095 fps=399 q=-0.0 size=N/A time=00:02:09.08 bitrate=N/A speed=16.7x    frame= 3252 fps=393 q=-0.0 size=N/A time=00:02:15.63 bitrate=N/A speed=16.4x    frame= 3419 fps=389 q=-0.0 size=N/A time=00:02:22.60 bitrate=N/A speed=16.2x    frame= 3611 fps=388 q=-0.0 size=N/A time=00:02:30.60 bitrate=N/A speed=16.2x    frame= 3779 fps=385 q=-0.0 size=N/A time=00:02:37.61 bitrate=N/A speed=16.1x    frame= 3958 fps=383 q=-0.0 size=N/A time=00:02:45.08 bitrate=N/A speed=  16x    frame= 4156 fps=383 q=-0.0 size=N/A time=00:02:53.33 bitrate=N/A speed=  16x    frame= 4337 fps=382 q=-0.0 size=N/A time=00:03:00.88 bitrate=N/A speed=15.9x    frame= 4495 fps=378 q=-0.0 size=N/A time=00:03:07.47 bitrate=N/A speed=15.8x    frame= 4641 fps=374 q=-0.0 size=N/A time=00:03:13.56 bitrate=N/A speed=15.6x    frame= 4820 fps=373 q=-0.0 size=N/A time=00:03:21.03 bitrate=N/A speed=15.6x    frame= 4950 fps=368 q=-0.0 size=N/A time=00:03:26.45 bitrate=N/A speed=15.4x    frame= 5081 fps=364 q=-0.0 size=N/A time=00:03:31.92 bitrate=N/A speed=15.2x    frame= 5237 fps=362 q=-0.0 size=N/A time=00:03:38.42 bitrate=N/A speed=15.1x    frame= 5472 fps=365 q=-0.0 size=N/A time=00:03:48.22 bitrate=N/A speed=15.2x    frame= 5702 fps=368 q=-0.0 size=N/A time=00:03:57.82 bitrate=N/A speed=15.3x    frame= 5911 fps=369 q=-0.0 size=N/A time=00:04:06.53 bitrate=N/A speed=15.4x    frame= 6138 fps=371 q=-0.0 size=N/A time=00:04:16.00 bitrate=N/A speed=15.5x    frame= 6360 fps=373 q=-0.0 size=N/A time=00:04:25.26 bitrate=N/A speed=15.6x    frame= 6593 fps=375 q=-0.0 size=N/A time=00:04:34.98 bitrate=N/A speed=15.7x    frame= 6808 fps=376 q=-0.0 size=N/A time=00:04:43.95 bitrate=N/A speed=15.7x    frame= 6991 fps=376 q=-0.0 size=N/A time=00:04:51.58 bitrate=N/A speed=15.7x    frame= 7191 fps=376 q=-0.0 size=N/A time=00:04:59.92 bitrate=N/A speed=15.7x    frame= 7393 fps=377 q=-0.0 size=N/A time=00:05:08.34 bitrate=N/A speed=15.7x    frame= 7627 fps=379 q=-0.0 size=N/A time=00:05:18.10 bitrate=N/A speed=15.8x    frame= 7886 fps=382 q=-0.0 size=N/A time=00:05:28.91 bitrate=N/A speed=15.9x    frame= 8147 fps=385 q=-0.0 size=N/A time=00:05:39.79 bitrate=N/A speed=16.1x    frame= 8401 fps=387 q=-0.0 size=N/A time=00:05:50.39 bitrate=N/A speed=16.2x    frame= 8600 fps=387 q=-0.0 size=N/A time=00:05:58.69 bitrate=N/A speed=16.2x    frame= 8798 fps=387 q=-0.0 size=N/A time=00:06:06.94 bitrate=N/A speed=16.2x    frame= 9020 fps=388 q=-0.0 size=N/A time=00:06:16.20 bitrate=N/A speed=16.2x    frame= 9207 fps=388 q=-0.0 size=N/A time=00:06:24.00 bitrate=N/A speed=16.2x    frame= 9381 fps=387 q=-0.0 size=N/A time=00:06:31.26 bitrate=N/A speed=16.1x    frame= 9603 fps=387 q=-0.0 size=N/A time=00:06:40.52 bitrate=N/A speed=16.2x    frame= 9820 fps=388 q=-0.0 size=N/A time=00:06:49.57 bitrate=N/A speed=16.2x    frame=10026 fps=388 q=-0.0 size=N/A time=00:06:58.16 bitrate=N/A speed=16.2x    frame=10249 fps=389 q=-0.0 size=N/A time=00:07:07.46 bitrate=N/A speed=16.2x    frame=10519 fps=392 q=-0.0 size=N/A time=00:07:18.72 bitrate=N/A speed=16.3x    frame=10765 fps=393 q=-0.0 size=N/A time=00:07:28.99 bitrate=N/A speed=16.4x    frame=11018 fps=395 q=-0.0 size=N/A time=00:07:39.54 bitrate=N/A speed=16.5x    frame=11277 fps=397 q=-0.0 size=N/A time=00:07:50.34 bitrate=N/A speed=16.6x    frame=11534 fps=399 q=-0.0 size=N/A time=00:08:01.06 bitrate=N/A speed=16.6x    frame=11808 fps=401 q=-0.0 size=N/A time=00:08:12.49 bitrate=N/A speed=16.7x    frame=12063 fps=403 q=-0.0 size=N/A time=00:08:23.12 bitrate=N/A speed=16.8x    frame=12276 fps=403 q=-0.0 size=N/A time=00:08:32.01 bitrate=N/A speed=16.8x    frame=12490 fps=403 q=-0.0 size=N/A time=00:08:40.93 bitrate=N/A speed=16.8x    frame=12684 fps=403 q=-0.0 size=N/A time=00:08:49.02 bitrate=N/A speed=16.8x    frame=12896 fps=403 q=-0.0 size=N/A time=00:08:57.87 bitrate=N/A speed=16.8x    frame=13097 fps=403 q=-0.0 size=N/A time=00:09:06.25 bitrate=N/A speed=16.8x    frame=13294 fps=402 q=-0.0 size=N/A time=00:09:14.47 bitrate=N/A speed=16.8x    frame=13523 fps=403 q=-0.0 size=N/A time=00:09:24.02 bitrate=N/A speed=16.8x    frame=13724 fps=403 q=-0.0 size=N/A time=00:09:32.40 bitrate=N/A speed=16.8x    frame=13979 fps=404 q=-0.0 size=N/A time=00:09:43.04 bitrate=N/A speed=16.9x    frame=14208 fps=405 q=-0.0 size=N/A time=00:09:52.59 bitrate=N/A speed=16.9x    frame=14437 fps=405 q=-0.0 size=N/A time=00:10:02.14 bitrate=N/A speed=16.9x    frame=14663 fps=406 q=-0.0 size=N/A time=00:10:11.56 bitrate=N/A speed=16.9x    frame=14906 fps=407 q=-0.0 size=N/A time=00:10:21.70 bitrate=N/A speed=  17x    frame=15117 fps=407 q=-0.0 size=N/A time=00:10:30.50 bitrate=N/A speed=  17x    frame=15343 fps=407 q=-0.0 size=N/A time=00:10:39.93 bitrate=N/A speed=  17x    frame=15587 fps=408 q=-0.0 size=N/A time=00:10:50.10 bitrate=N/A speed=  17x    frame=15811 fps=408 q=-0.0 size=N/A time=00:10:59.45 bitrate=N/A speed=  17x    frame=16024 fps=408 q=-0.0 size=N/A time=00:11:08.33 bitrate=N/A speed=  17x    frame=16226 fps=408 q=-0.0 size=N/A time=00:11:16.75 bitrate=N/A speed=  17x    frame=16485 fps=409 q=-0.0 size=N/A time=00:11:27.56 bitrate=N/A speed=17.1x    frame=16691 fps=409 q=-0.0 size=N/A time=00:11:36.15 bitrate=N/A speed=17.1x    frame=16946 fps=410 q=-0.0 size=N/A time=00:11:46.78 bitrate=N/A speed=17.1x    frame=17124 fps=410 q=-0.0 size=N/A time=00:11:54.21 bitrate=N/A speed=17.1x    frame=17381 fps=411 q=-0.0 size=N/A time=00:12:04.93 bitrate=N/A speed=17.1x    frame=17628 fps=411 q=-0.0 size=N/A time=00:12:15.23 bitrate=N/A speed=17.2x    frame=17838 fps=411 q=-0.0 size=N/A time=00:12:23.99 bitrate=N/A speed=17.2x    frame=18051 fps=411 q=-0.0 size=N/A time=00:12:32.87 bitrate=N/A speed=17.2x    frame=18261 fps=411 q=-0.0 size=N/A time=00:12:41.63 bitrate=N/A speed=17.2x    frame=18511 fps=412 q=-0.0 size=N/A time=00:12:52.06 bitrate=N/A speed=17.2x    frame=18707 fps=412 q=-0.0 size=N/A time=00:13:00.23 bitrate=N/A speed=17.2x    frame=18914 fps=412 q=-0.0 size=N/A time=00:13:08.87 bitrate=N/A speed=17.2x    frame=19154 fps=412 q=-0.0 size=N/A time=00:13:18.88 bitrate=N/A speed=17.2x    frame=19347 fps=412 q=-0.0 size=N/A time=00:13:26.93 bitrate=N/A speed=17.2x    frame=19582 fps=412 q=-0.0 size=N/A time=00:13:36.73 bitrate=N/A speed=17.2x    frame=19793 fps=412 q=-0.0 size=N/A time=00:13:45.53 bitrate=N/A speed=17.2x    frame=20016 fps=413 q=-0.0 size=N/A time=00:13:54.83 bitrate=N/A speed=17.2x    frame=20188 fps=412 q=-0.0 size=N/A time=00:14:02.00 bitrate=N/A speed=17.2x    frame=20396 fps=412 q=-0.0 size=N/A time=00:14:10.68 bitrate=N/A speed=17.2x    frame=20642 fps=412 q=-0.0 size=N/A time=00:14:20.94 bitrate=N/A speed=17.2x    frame=20859 fps=412 q=-0.0 size=N/A time=00:14:29.99 bitrate=N/A speed=17.2x    frame=21054 fps=412 q=-0.0 size=N/A time=00:14:38.12 bitrate=N/A speed=17.2x    frame=21307 fps=413 q=-0.0 size=N/A time=00:14:48.67 bitrate=N/A speed=17.2x    frame=21521 fps=413 q=-0.0 size=N/A time=00:14:57.60 bitrate=N/A speed=17.2x    frame=21742 fps=413 q=-0.0 size=N/A time=00:15:06.82 bitrate=N/A speed=17.2x    frame=21952 fps=413 q=-0.0 size=N/A time=00:15:15.58 bitrate=N/A speed=17.2x    frame=22160 fps=413 q=-0.0 size=N/A time=00:15:24.25 bitrate=N/A speed=17.2x    frame=22338 fps=412 q=-0.0 size=N/A time=00:15:31.68 bitrate=N/A speed=17.2x    frame=22536 fps=412 q=-0.0 size=N/A time=00:15:39.93 bitrate=N/A speed=17.2x    frame=22752 fps=412 q=-0.0 size=N/A time=00:15:48.94 bitrate=N/A speed=17.2x    frame=22980 fps=412 q=-0.0 size=N/A time=00:15:58.45 bitrate=N/A speed=17.2x    frame=23212 fps=412 q=-0.0 size=N/A time=00:16:08.13 bitrate=N/A speed=17.2x    frame=23401 fps=412 q=-0.0 size=N/A time=00:16:16.01 bitrate=N/A speed=17.2x    frame=23630 fps=412 q=-0.0 size=N/A time=00:16:25.56 bitrate=N/A speed=17.2x    frame=23844 fps=412 q=-0.0 size=N/A time=00:16:34.49 bitrate=N/A speed=17.2x    frame=24050 fps=412 q=-0.0 size=N/A time=00:16:43.08 bitrate=N/A speed=17.2x    frame=24278 fps=412 q=-0.0 size=N/A time=00:16:52.59 bitrate=N/A speed=17.2x    frame=24500 fps=412 q=-0.0 size=N/A time=00:17:01.85 bitrate=N/A speed=17.2x    frame=24754 fps=413 q=-0.0 size=N/A time=00:17:12.44 bitrate=N/A speed=17.2x    frame=24981 fps=413 q=-0.0 size=N/A time=00:17:21.91 bitrate=N/A speed=17.2x    frame=25201 fps=414 q=-0.0 size=N/A time=00:17:31.09 bitrate=N/A speed=17.2x    frame=25408 fps=413 q=-0.0 size=N/A time=00:17:39.72 bitrate=N/A speed=17.2x    frame=25628 fps=414 q=-0.0 size=N/A time=00:17:48.90 bitrate=N/A speed=17.2x    frame=25849 fps=414 q=-0.0 size=N/A time=00:17:58.11 bitrate=N/A speed=17.3x    frame=26074 fps=414 q=-0.0 size=N/A time=00:18:07.50 bitrate=N/A speed=17.3x    frame=26278 fps=414 q=-0.0 size=N/A time=00:18:16.01 bitrate=N/A speed=17.3x    frame=26482 fps=414 q=-0.0 size=N/A time=00:18:24.52 bitrate=N/A speed=17.3x    frame=26690 fps=414 q=-0.0 size=N/A time=00:18:33.19 bitrate=N/A speed=17.2x    frame=26920 fps=414 q=-0.0 size=N/A time=00:18:42.78 bitrate=N/A speed=17.3x    frame=27116 fps=414 q=-0.0 size=N/A time=00:18:50.96 bitrate=N/A speed=17.2x    frame=27305 fps=413 q=-0.0 size=N/A time=00:18:58.84 bitrate=N/A speed=17.2x    frame=27500 fps=413 q=-0.0 size=N/A time=00:19:06.97 bitrate=N/A speed=17.2x    frame=27755 fps=413 q=-0.0 size=N/A time=00:19:17.61 bitrate=N/A speed=17.2x    frame=27957 fps=413 q=-0.0 size=N/A time=00:19:26.03 bitrate=N/A speed=17.2x    frame=28156 fps=413 q=-0.0 size=N/A time=00:19:34.33 bitrate=N/A speed=17.2x    frame=28379 fps=413 q=-0.0 size=N/A time=00:19:43.64 bitrate=N/A speed=17.2x    frame=28588 fps=413 q=-0.0 size=N/A time=00:19:52.35 bitrate=N/A speed=17.2x    frame=28808 fps=413 q=-0.0 size=N/A time=00:20:01.53 bitrate=N/A speed=17.2x    frame=29024 fps=413 q=-0.0 size=N/A time=00:20:10.54 bitrate=N/A speed=17.2x    frame=29218 fps=413 q=-0.0 size=N/A time=00:20:18.63 bitrate=N/A speed=17.2x    frame=29435 fps=413 q=-0.0 size=N/A time=00:20:27.68 bitrate=N/A speed=17.2x    frame=29637 fps=413 q=-0.0 size=N/A time=00:20:36.10 bitrate=N/A speed=17.2x    frame=29798 fps=412 q=-0.0 size=N/A time=00:20:42.82 bitrate=N/A speed=17.2x    frame=30023 fps=412 q=-0.0 size=N/A time=00:20:52.20 bitrate=N/A speed=17.2x    frame=30221 fps=412 q=-0.0 size=N/A time=00:21:00.46 bitrate=N/A speed=17.2x    frame=30373 fps=411 q=-0.0 size=N/A time=00:21:06.80 bitrate=N/A speed=17.2x    frame=30579 fps=411 q=-0.0 size=N/A time=00:21:15.39 bitrate=N/A speed=17.2x    frame=30788 fps=411 q=-0.0 size=N/A time=00:21:24.11 bitrate=N/A speed=17.2x    frame=30975 fps=411 q=-0.0 size=N/A time=00:21:31.91 bitrate=N/A speed=17.1x    frame=31232 fps=411 q=-0.0 size=N/A time=00:21:42.63 bitrate=N/A speed=17.2x    frame=31459 fps=412 q=-0.0 size=N/A time=00:21:52.10 bitrate=N/A speed=17.2x    frame=31672 fps=412 q=-0.0 size=N/A time=00:22:00.98 bitrate=N/A speed=17.2x    frame=31854 fps=411 q=-0.0 size=N/A time=00:22:08.57 bitrate=N/A speed=17.2x    frame=32077 fps=411 q=-0.0 size=N/A time=00:22:17.87 bitrate=N/A speed=17.2x    frame=32272 fps=411 q=-0.0 size=N/A time=00:22:26.01 bitrate=N/A speed=17.2x    frame=32495 fps=411 q=-0.0 size=N/A time=00:22:35.31 bitrate=N/A speed=17.2x    frame=32729 fps=412 q=-0.0 size=N/A time=00:22:45.07 bitrate=N/A speed=17.2x    frame=32923 fps=411 q=-0.0 size=N/A time=00:22:53.16 bitrate=N/A speed=17.2x    frame=33100 fps=411 q=-0.0 size=N/A time=00:23:00.54 bitrate=N/A speed=17.1x    frame=33342 fps=411 q=-0.0 size=N/A time=00:23:10.63 bitrate=N/A speed=17.2x    frame=33564 fps=411 q=-0.0 size=N/A time=00:23:19.89 bitrate=N/A speed=17.2x    frame=33778 fps=411 q=-0.0 size=N/A time=00:23:28.82 bitrate=N/A speed=17.2x    frame=33993 fps=411 q=-0.0 size=N/A time=00:23:37.79 bitrate=N/A speed=17.2x    frame=34230 fps=412 q=-0.0 size=N/A time=00:23:47.67 bitrate=N/A speed=17.2x    frame=34432 fps=412 q=-0.0 size=N/A time=00:23:56.10 bitrate=N/A speed=17.2x    [Parsed_psnr_10 @ 000001ee2b2693c0] PSNR y:47.161059 u:51.076748 v:50.980431 average:48.111268 min:37.687346 max:inf
[out#0/null @ 000001ee14a03540] video:14858KiB audio:270432KiB subtitle:0KiB other streams:0KiB global headers:0KiB muxing overhead: unknown
frame=34578 fps=412 q=-0.0 Lsize=N/A time=00:24:02.19 bitrate=N/A speed=17.2x    
